<svg width="16" height="16" viewBox="0 0 16 16" fill="none" xmlns="http://www.w3.org/2000/svg">
<path d="M1.4875 9.38748L7.13438 14.6594C7.36875 14.8781 7.67812 15 8 15C8.32188 15 8.63125 14.8781 8.86563 14.6594L14.5125 9.38748C15.4625 8.50311 16 7.26248 16 5.96561V5.78436C16 3.59998 14.4219 1.73748 12.2688 1.37811C10.8438 1.14061 9.39375 1.60623 8.375 2.62498L8 2.99998L7.625 2.62498C6.60625 1.60623 5.15625 1.14061 3.73125 1.37811C1.57812 1.73748 0 3.59998 0 5.78436V5.96561C0 7.26248 0.5375 8.50311 1.4875 9.38748Z" fill="#63E6BE"/>
</svg>
