<svg width="16" height="64" viewBox="0 0 16 64" fill="none" xmlns="http://www.w3.org/2000/svg">
<path d="M9 1C9 0.447715 8.55228 0 8 0C7.44772 0 7 0.447715 7 1L9 1ZM7.29289 63.7071C7.68342 64.0976 8.31658 64.0976 8.70711 63.7071L15.0711 57.3431C15.4616 56.9526 15.4616 56.3195 15.0711 55.9289C14.6805 55.5384 14.0474 55.5384 13.6569 55.9289L8 61.5858L2.34315 55.9289C1.95262 55.5384 1.31946 55.5384 0.928932 55.9289C0.538408 56.3195 0.538408 56.9526 0.928932 57.3431L7.29289 63.7071ZM7 1L7 63H9L9 1L7 1Z" fill="black"/>
</svg>
